<svg id="Capa_1" data-name="Capa 1" xmlns="http://www.w3.org/2000/svg" viewBox="0 0 500 500"><defs><style>.cls-1,.cls-2{fill:none;stroke:#873287;stroke-miterlimit:10;}.cls-1{stroke-width:3px;}.cls-2{stroke-width:14px;}</style></defs><line class="cls-1" x1="72.57" y1="129.88" x2="72.57" y2="441.05"/><line class="cls-1" x1="82.21" y1="127.21" x2="82.21" y2="438.39"/><line class="cls-1" x1="95.13" y1="127.21" x2="95.13" y2="438.39"/><line class="cls-1" x1="105.79" y1="127.21" x2="105.79" y2="438.39"/><line class="cls-1" x1="149.53" y1="128.95" x2="159.16" y2="443.98"/><line class="cls-1" x1="158.43" y1="125.53" x2="166.79" y2="440.07"/><line class="cls-1" x1="167.71" y1="126.18" x2="176.07" y2="440.72"/><line class="cls-1" x1="176.07" y1="127.21" x2="184.43" y2="442.71"/><line class="cls-1" x1="257.71" y1="135.27" x2="262.21" y2="438.39"/><line class="cls-1" x1="247.3" y1="130.22" x2="251" y2="441.39"/><line class="cls-1" x1="229.71" y1="127.21" x2="242.39" y2="440.72"/><path class="cls-1" d="M222.57,123.63c-.86,2.8,8.14,316.44,8.14,316.44"/><line class="cls-1" x1="332" y1="130.22" x2="336.5" y2="440.07"/><line class="cls-1" x1="322.07" y1="128.95" x2="327.86" y2="440.07"/><line class="cls-1" x1="314.43" y1="123.63" x2="317.29" y2="443.98"/><line class="cls-1" x1="305.9" y1="127.21" x2="305.9" y2="441.96"/><line class="cls-1" x1="378.33" y1="127.21" x2="382.43" y2="441.96"/><line class="cls-1" x1="387" y1="128.95" x2="390.86" y2="440.72"/><line class="cls-1" x1="399.29" y1="128.95" x2="399.29" y2="441.39"/><line class="cls-1" x1="405.93" y1="128.95" x2="410.43" y2="441.96"/><path class="cls-2" d="M60.69,137.69a7.46,7.46,0,0,1,7.47-7.47H410.27a8.42,8.42,0,0,1,8.43,8.4q.51,152,1,304.09l-48.44-.32-21.84-.15L60.69,440.3Z"/><path class="cls-2" d="M171.89,130.22c-.18-4-1.19-40.12,27.54-62.93,19.47-15.46,41.06-15.65,47.68-15.43s35,2,53.35,25.39c18.57,23.64,14.42,52.74,13.08,53-1.59.27-.09-39.6-25.61-60.36-18.15-14.76-41-13.37-45.14-13-21.35,1.64-35.58,13.11-41.49,18.72-22.42,21.25-22.14,49.85-22,54.69"/><path class="cls-2" d="M188.93,130.22c-.05-5.22.36-26.57,16.71-44.61,3.25-3.59,18.91-20.86,44-20.9,19.25,0,32.54,10.08,36.64,13.5,22.84,19.05,21.71,48.41,21.51,52"/><path class="cls-2" d="M298.65,130.22A66.07,66.07,0,0,0,294,98.46a66.8,66.8,0,0,0-25.83-30.54"/><path class="cls-2" d="M196.64,130.22a47.48,47.48,0,0,1-5.39-13.33,48.83,48.83,0,0,1,0-21.75c4.63-19,21.32-28.46,24.32-30.1"/><path class="cls-2" d="M172.79,123.63c-32.5-.47-73-.92-106.18-1.4a7.45,7.45,0,0,0-6.69,4s.78,21.43.77,21.45"/><path class="cls-2" d="M299.05,122.14l-103.5,1.49"/><path class="cls-2" d="M315.29,122.89l94.65,3.46a8.43,8.43,0,0,1,3.85,1.1l1,.56a8.42,8.42,0,0,1,4.23,6.66q11.18,141.48,22.34,282.94l-20,28.64"/><path class="cls-2" d="M60.69,194.57l358.19-.8"/><path class="cls-2" d="M60.69,211.71,418.11,210"/><path class="cls-2" d="M294.57,120c.25-3,1.62-23.07-13.71-38.57a49.23,49.23,0,0,0-31.29-14.14c-3.41-.12-25-.51-41.57,16.71-14.8,15.39-15.21,34.09-15.21,38.06"/><path class="cls-2" d="M371.27,442.39l-3.41-312.17"/><path class="cls-2" d="M349.43,442.24q-2.58-156-5.14-312"/><path class="cls-2" d="M298,441.9q-1.72-155.85-3.44-311.68"/><path class="cls-2" d="M277.43,441.76l-6-311.54"/><path class="cls-2" d="M222.57,441.39l-9-311.17"/><path class="cls-2" d="M198.58,441.23q-4.83-155.5-9.65-311"/><path class="cls-2" d="M147.15,440.88Q143.07,285.55,139,130.22"/><path class="cls-2" d="M122.71,440.72q-2.77-155.25-5.57-310.5"/><line class="cls-2" x1="432.92" y1="429.67" x2="426.14" y2="307.29"/></svg>