<svg id="Capa_2" data-name="Capa 2" xmlns="http://www.w3.org/2000/svg" viewBox="0 0 500 500"><defs><style>.cls-1{fill:#873287;stroke:#873287;stroke-miterlimit:10;stroke-width:16px;}</style></defs><path class="cls-1" d="M251,129.12a114.72,114.72,0,0,1,43.68-48.41,113.09,113.09,0,0,1,62.75-16.42c6.34.29,45.6,2.74,73.93,33.64,37.4,40.79,25.7,98.37,21.69,118.13a177.6,177.6,0,0,1-24.39,59.72C379.14,355,290.93,416.09,251,441.75c-59.5-34.46-126.15-87.05-174.29-167Q69,261.92,62.49,249.19C33.13,184.84,42.45,118,79.93,87c24-19.88,56.62-22.55,60.43-22.82,38.16-2.69,65.46,15.08,73.58,20.85A115.8,115.8,0,0,1,251,129.12Z"/></svg>