<svg xmlns="http://www.w3.org/2000/svg" viewBox="0 0 500 500"><defs><style>.cls-1{fill:none;stroke:#873287;stroke-miterlimit:10;stroke-width:20px;}</style></defs><g id="Capa_1" data-name="Capa 1"><path class="cls-1" d="M250,59.46c-12.85,0-84.66,1.57-140.18,59.79C62.2,169.19,57.53,228.37,56.79,244c-.79,11.54-4.52,84.38,52.07,143.32S238.44,445.5,250,445.18c12.35-.38,100.52-4.55,155.86-78.11,34.6-46,38.2-95,38.57-114.27-.23-12.1-3.22-96.28-73.29-151.87C321.81,61.79,267.78,59.47,250,59.46Z"/></g><g id="Capa_2" data-name="Capa 2"><path class="cls-1" d="M65.44,195.42a567.75,567.75,0,0,0,178.42,30.87,568.09,568.09,0,0,0,190.82-30.87"/><path class="cls-1" d="M63.51,306.77a482.85,482.85,0,0,0,186.13,37.16,482.9,482.9,0,0,0,185-37.16"/><path class="cls-1" d="M233.94,60.28c-14.71,16.54-71.52,84.26-72.05,187.22-.57,111.28,65,183,79,197.65"/><path class="cls-1" d="M267.82,60.28c14.69,17,73,88.46,71.5,195.9-1.46,102.19-56.12,169.73-71.5,187.52"/></g></svg>