<svg id="Capa_1" data-name="Capa 1" xmlns="http://www.w3.org/2000/svg" viewBox="0 0 500 500"><defs><style>.cls-1{fill:#873287;stroke:#873287;stroke-miterlimit:10;stroke-width:2px;}</style></defs><path class="cls-1" d="M176,321.62l-14.85-28.74a5.12,5.12,0,0,1,1.78-5.48,5.23,5.23,0,0,1,6.76.71L202.35,323a9.27,9.27,0,0,0,11.73-1.06,9,9,0,0,0,1.6-9.55L186.35,280c-1.18-1.31-1.51-5.31.18-6.72,1.46-1.22,4.19-.19,5.07.18L248,304.91a6.89,6.89,0,0,0,6.23-12.21l-51.16-36a3.77,3.77,0,0,1,1.72-7.28l44.81,14.07c7.05,2.25,12.71-.08,13.47-2.85.64-2.36-2-6-6.36-8.29-7.53-3-16.32-6.57-26.12-10.61-18.1-7.46-24.9-10.48-33.07-15.92a124.66,124.66,0,0,1-12.4-9.44,8.24,8.24,0,0,1-5.19-8.6,8.13,8.13,0,0,1,5.33-6.37l33-2.1a9.49,9.49,0,0,0-2.06-17,270.8,270.8,0,0,1-44.8,1.06,272,272,0,0,1-35.7-4.48c3.26-4.66,7-9.57,11.17-14.62C151.34,159,155.75,154.2,160,150a703.73,703.73,0,0,1,202.37,23.87,159.19,159.19,0,0,1,31.46,156c-43.6-3.87-107.22-3.62-178.64,18.57a451.76,451.76,0,0,0-75.72,31.3A143.62,143.62,0,0,1,101,249.2c10.08,9.55,20.59,20.3,31.2,32.36a494.78,494.78,0,0,1,36,46.16,5.53,5.53,0,0,0,7.74-6.1Z"/><path class="cls-1" d="M155.31,395.51a522.07,522.07,0,0,1,236.23-57.17A308.18,308.18,0,0,1,339.81,411q2.15,4.5,4.27,9a399.24,399.24,0,0,1-79.45,9,398.84,398.84,0,0,1-98-11,161.54,161.54,0,0,1,65.46-29.85,202.88,202.88,0,0,0-62.53,14.72,38.67,38.67,0,0,1-14.26-7.42Z"/><path class="cls-1" d="M160.76,81.8A457.15,457.15,0,0,1,353,80.47a64.61,64.61,0,0,0-13.6,32.37,126,126,0,0,0-19.46-4.78,127.39,127.39,0,0,0-29.07-1.33,152.22,152.22,0,0,1,25.07,5.58,150.51,150.51,0,0,1,22.39,9,55.34,55.34,0,0,0,12.8,32.89,615.7,615.7,0,0,0-183.44-12.47,56.42,56.42,0,0,0-6.93-59.95Z"/></svg>