<svg id="Capa_3" data-name="Capa 3" xmlns="http://www.w3.org/2000/svg" viewBox="0 0 500 500"><defs><style>.cls-1{fill:#873287;stroke:#873287;stroke-miterlimit:10;stroke-width:3px;}</style></defs><path class="cls-1" d="M84.09,237.57C83.45,229,79,151.27,139.91,99.35c43.52-37.09,93.54-38.11,107.46-37.93,8.74-.83,76.12-6.12,127.91,46.5,52.14,53,45.39,120.82,44.38,129.43,6.67-.3,22.8-.19,30,10.07,3.63,5.18,3.33,10.57,3,26.15-.18,8.42-.4,21.31-.43,37.5-.14,20.74-.2,33.38-.23,40.6-.08,17.24-.07,24.42-5.34,29.9-6.56,6.81-17.21,6.73-22.93,6.21a112,112,0,0,1-24.64,19.93c-13.1,7.8-24.54,10.93-34.72,13.71a206.23,206.23,0,0,1-31.61,5.79,237.49,237.49,0,0,1-49,.21A27.77,27.77,0,0,1,258.52,439l-28.29-.42a21.32,21.32,0,0,1-2.47-41.17l34.44-2.68A20.06,20.06,0,0,1,276.09,397a19.81,19.81,0,0,1,7.5,8c23.65,3.41,58.15,4.53,95.28-9a183.44,183.44,0,0,0,21.39-9.36,32.42,32.42,0,0,1-13-10c-4.59-6.14-5.58-12.64-5.93-36.24-.26-18,.25-18.16,0-34.5-.15-9.78-.08-19.57-.21-29.35-.17-12-.36-19.06,3.85-26.58a33.08,33.08,0,0,1,8.57-9.85c.54-7,4.38-71.33-46.28-114.75-38.65-33.13-83.62-32.3-94.29-31.82-9.46.42-66.95.9-102.42,39.53-15.33,16.68-24.75,38.25-24.75,38.25-5.85,13.36-8.86,26.18-10.93,35-.69,2.91-1.28,6.27-2.44,13-2.2,12.8-2.41,17.44-.24,22a19.72,19.72,0,0,0,4.19,5.59c8.91,9.43,5.75,27.2,4.92,53.95-.67,21.47.16,32.15,0,41.14-.48,26.36-1.57,32.34-6.3,37.79-2.24,2.57-10.9,11.37-33.56,9.46-4.67.06-16.63-.43-23.63-8.83-4.38-5.24-5-11.32-5.29-15.59a508.42,508.42,0,0,1-1.14-51.92c.18-12.81-.3-23.52.59-45.8.54-13.34,1.15-20.3,6.43-25.29C66.32,234.36,79.44,236.57,84.09,237.57Z"/></svg>